<?xml version="1.0" encoding="UTF-8" standalone="no"?>
<svg
   xmlns:dc="http://purl.org/dc/elements/1.1/"
   xmlns:cc="http://creativecommons.org/ns#"
   xmlns:rdf="http://www.w3.org/1999/02/22-rdf-syntax-ns#"
   xmlns:svg="http://www.w3.org/2000/svg"
   xmlns="http://www.w3.org/2000/svg"
   xmlns:sodipodi="http://sodipodi.sourceforge.net/DTD/sodipodi-0.dtd"
   xmlns:inkscape="http://www.inkscape.org/namespaces/inkscape"
   class="railroad"
   viewBox="0 0 643 78.707108"
   version="1.1"
   id="svg150"
   sodipodi:docname="JPEGsyntax.svg"
   width="643"
   height="78.707108"
   inkscape:version="0.92.2 (5c3e80d, 2017-08-06)">
  <metadata
     id="metadata156">
    <rdf:RDF>
      <cc:Work
         rdf:about="">
        <dc:format>image/svg+xml</dc:format>
        <dc:type
           rdf:resource="http://purl.org/dc/dcmitype/StillImage" />
        <dc:title></dc:title>
      </cc:Work>
    </rdf:RDF>
  </metadata>
  <defs
     id="defs154" />
  <sodipodi:namedview
     pagecolor="#ff00ff"
     bordercolor="#666666"
     borderopacity="1"
     objecttolerance="10"
     gridtolerance="10"
     guidetolerance="10"
     inkscape:pageopacity="0"
     inkscape:pageshadow="2"
     inkscape:window-width="1920"
     inkscape:window-height="1057"
     id="namedview152"
     showgrid="false"
     inkscape:snap-bbox="true"
     inkscape:snap-bbox-midpoints="true"
     inkscape:zoom="2.2457232"
     inkscape:cx="321.5"
     inkscape:cy="39.353554"
     inkscape:window-x="215"
     inkscape:window-y="1432"
     inkscape:window-maximized="1"
     inkscape:current-layer="svg150" />
  <rect
     height="22"
     width="44"
     x="25.5"
     y="18.353554"
     id="rect8"
     style="fill:#ffffff;stroke:#000000;stroke-width:1;stroke-miterlimit:4;stroke-dasharray:1, 3;stroke-dashoffset:0" />
  <path
     d="m 0.5,29.353553 a 5,5 0 0 1 5,-5 5,5 0 0 1 5,5 5,5 0 0 1 -5,5 5,5 0 0 1 -5,-5 m 10,0 h 5"
     id="path6"
     inkscape:connector-curvature="0"
     style="fill:#ffffff;stroke:#000000" />
  <path
     d="m 79.5,29.353553 h 12 m 460,0 h 12 m -12,0 a 12,12 0 0 1 12,12 v 20 a 12,12 0 0 1 -12,12 m 0,0 h -460 m 233,0 5,-5 m 0,10 -5,-5 m -233,0 a 12,12 0 0 1 -12,-12 v -20 a 12,12 0 0 1 12,-12"
     id="path14"
     inkscape:connector-curvature="0"
     style="fill:none;stroke:#000000" />
  <path
     d="m 91.5,29.353553 h 12 m 84,0 h 12 m -12,0 a 12,12 0 0 1 12,12 v 0 a 12,12 0 0 1 -12,12 m 0,0 h -84 m 45,0 5,-5 m 0,10 -5,-5 m -45,0 a 12,12 0 0 1 -12,-12 v 0 a 12,12 0 0 1 12,-12"
     id="path18"
     inkscape:connector-curvature="0"
     style="fill:none;stroke:#000000" />
  <rect
     height="22"
     rx="10"
     ry="10"
     width="84"
     x="103.5"
     y="18.353554"
     id="rect22"
     style="fill:#ffffff;stroke:#000000" />
  <path
     d="m 209.5,29.353553 h 12 m 318,0 h 12 m -12,0 a 12,12 0 0 1 12,12 v 10 a 12,12 0 0 1 -12,12 m 0,0 h -318 m 162,0 5,-5 m 0,10 -5,-5 m -162,0 a 12,12 0 0 1 -12,-12 v -10 a 12,12 0 0 1 12,-12"
     id="path32"
     inkscape:connector-curvature="0"
     style="fill:none;stroke:#000000" />
  <rect
     height="22"
     rx="10"
     ry="10"
     width="52"
     x="221.5"
     y="18.353554"
     id="rect36"
     style="fill:#ffffff;stroke:#000000" />
  <rect
     height="22"
     width="44"
     x="283.5"
     y="18.353554"
     id="rect42"
     style="fill:#ffffff;stroke:#000000;stroke-width:1;stroke-miterlimit:4;stroke-dasharray:4, 2, 1, 2;stroke-dashoffset:0" />
  <path
     d="m 337.5,29.353553 h 24 m -24,0 a 12,12 0 0 0 12,-12 v 0 a 12,12 0 0 1 12,-11.9999996 h 154 m -74,0 -5,-5.00000001 m 0,9.99999961 5,-4.9999996 m 74,0 a 12,12 0 0 1 12,11.9999996 v 0 a 12,12 0 0 0 12,12 h -24"
     id="path48"
     inkscape:connector-curvature="0"
     style="fill:none;stroke:#000000" />
  <path
     inkscape:connector-curvature="0"
     id="path50"
     d="m 361.5,29.353553 h 12 m 130,0 h 12 m -12,0 a 12,12 0 0 1 12,12 v 0 a 12,12 0 0 1 -12,12 m 0,0 h -130 m 68,0 5,-5 m 0,10 -5,-5 m -68,0 a 12,12 0 0 1 -12,-12 v 0 a 12,12 0 0 1 12,-12"
     style="fill:none;stroke:#000000" />
  <rect
     style="fill:#ffffff;stroke:#000000;stroke-width:1;stroke-miterlimit:4;stroke-dasharray:1, 3;stroke-dashoffset:0"
     id="rect54"
     y="18.353554"
     x="373.5"
     width="76"
     height="22" />
  <rect
     style="fill:#ffffff;stroke:#000000;stroke-width:1;stroke-miterlimit:4;stroke-dasharray:4, 2, 1, 2;stroke-dashoffset:0"
     id="rect60"
     y="18.353554"
     x="459.5"
     width="44"
     height="22" />
  <path
     d="m 449.5,29.353553 h 10"
     id="path66"
     inkscape:connector-curvature="0"
     style="fill:#ffffff;stroke:#000000" />
  <path
     inkscape:connector-curvature="0"
     id="path74"
     d="m 273.5,29.353553 h 10"
     style="fill:#ffffff;stroke:#000000" />
  <path
     inkscape:connector-curvature="0"
     id="path76"
     d="m 327.5,29.353553 h 10"
     style="fill:#ffffff;stroke:#000000" />
  <path
     inkscape:connector-curvature="0"
     id="path82"
     d="m 199.5,29.353553 h 10"
     style="fill:#ffffff;stroke:#000000" />
  <rect
     height="22"
     width="44"
     x="573.5"
     y="18.353554"
     id="rect88"
     style="fill:#ffffff;stroke:#000000;stroke-width:1;stroke-miterlimit:4;stroke-dasharray:1, 3;stroke-dashoffset:0" />
  <path
     inkscape:connector-curvature="0"
     id="path94"
     d="m 69.5,29.353553 h 10"
     style="fill:#ffffff;stroke:#000000" />
  <path
     inkscape:connector-curvature="0"
     id="path96"
     d="m 563.5,29.353553 h 10"
     style="fill:#ffffff;stroke:#000000" />
  <path
     d="m 627.5,29.353553 h 5 a 5,5 0 0 1 5,-5 5,5 0 0 1 5,5 5,5 0 0 1 -5,5 5,5 0 0 1 -5,-5"
     id="path100"
     inkscape:connector-curvature="0"
     style="fill:#ffffff;stroke:#000000" />
  <path
     d="m 15.5,29.353553 h 10"
     id="path102"
     inkscape:connector-curvature="0"
     style="fill:#ffffff;stroke:#000000" />
  <path
     d="m 617.5,29.353553 h 10"
     id="path104"
     inkscape:connector-curvature="0"
     style="fill:#ffffff;stroke:#000000" />
  <text
     x="46.708984"
     y="33.642616"
     id="text10"
     style="text-align:center;text-anchor:middle;fill:#000000;stroke:none">SoI</text>
  <text
     x="144.70898"
     y="33.642616"
     id="text24"
     style="text-align:center;text-anchor:middle;fill:#000000;stroke:none">Segments</text>
  <text
     x="246.70898"
     y="33.642616"
     id="text38"
     style="text-align:center;text-anchor:middle;fill:#000000;stroke:none">Scan</text>
  <text
     x="305.24512"
     y="33.642616"
     id="text44"
     style="text-align:center;text-anchor:middle;fill:#000000;stroke:none">ECS</text>
  <text
     id="text56"
     y="33.642616"
     x="411.05762"
     style="text-align:center;text-anchor:middle;fill:#000000;stroke:none">Restart</text>
  <text
     id="text62"
     y="33.642616"
     x="481.24512"
     style="text-align:center;text-anchor:middle;fill:#000000;stroke:none">ECS</text>
  <text
     x="595.5"
     y="33.642616"
     id="text90"
     style="text-align:center;text-anchor:middle;fill:#000000;stroke:none">EoI</text>
</svg>
