<?xml version="1.0" encoding="UTF-8" standalone="no"?>
<svg
   xmlns:dc="http://purl.org/dc/elements/1.1/"
   xmlns:cc="http://creativecommons.org/ns#"
   xmlns:rdf="http://www.w3.org/1999/02/22-rdf-syntax-ns#"
   xmlns:svg="http://www.w3.org/2000/svg"
   xmlns="http://www.w3.org/2000/svg"
   xmlns:sodipodi="http://sodipodi.sourceforge.net/DTD/sodipodi-0.dtd"
   xmlns:inkscape="http://www.inkscape.org/namespaces/inkscape"
   class="railroad"
   viewBox="0 0 264 55"
   version="1.1"
   id="svg853"
   sodipodi:docname="PNGBasicStruct.svg"
   inkscape:version="0.92.2 (5c3e80d, 2017-08-06)"
   inkscape:export-filename="png-basic.png"
   inkscape:export-xdpi="87.272728"
   inkscape:export-ydpi="87.272728">
  <metadata
     id="metadata859">
    <rdf:RDF>
      <cc:Work
         rdf:about="">
        <dc:format>image/svg+xml</dc:format>
        <dc:type
           rdf:resource="http://purl.org/dc/dcmitype/StillImage" />
      </cc:Work>
    </rdf:RDF>
  </metadata>
  <defs
     id="defs857" />
  <sodipodi:namedview
     pagecolor="#ffffff"
     bordercolor="#666666"
     borderopacity="1"
     objecttolerance="10"
     gridtolerance="10"
     guidetolerance="10"
     inkscape:pageopacity="0"
     inkscape:pageshadow="2"
     inkscape:window-width="1920"
     inkscape:window-height="1057"
     id="namedview855"
     showgrid="false"
     inkscape:snap-bbox="true"
     inkscape:snap-bbox-midpoints="true"
     inkscape:zoom="1"
     inkscape:cx="126.5981"
     inkscape:cy="27.5"
     inkscape:window-x="215"
     inkscape:window-y="1432"
     inkscape:window-maximized="1"
     inkscape:current-layer="svg853"
     inkscape:snap-page="true" />
  <rect
     id="rect831"
     y="10"
     x="149"
     width="68"
     ry="10"
     rx="10"
     height="22"
     style="stroke:#000000;fill:#ffffff" />
  <path
     inkscape:connector-curvature="0"
     id="path819"
     d="m 10,21 a 5,5 0 0 1 5,-5 5,5 0 0 1 5,5 5,5 0 0 1 -5,5 5,5 0 0 1 -5,-5 m 10,0 h 5"
     style="stroke:#000000;fill:#ffffff" />
  <rect
     style="fill:#ffffff;stroke:#000000"
     id="rect821"
     y="10"
     x="35"
     width="92"
     height="22" />
  <path
     inkscape:connector-curvature="0"
     id="path827"
     d="m 137,21 h 12 m 68,0 h 12 m -12,0 a 12,12 0 0 1 12,12 v 0 a 12,12 0 0 1 -12,12 m 0,0 h -68 m 37,0 5,-5 m 0,10 -5,-5 m -37,0 A 12,12 0 0 1 137,33 v 0 a 12,12 0 0 1 12,-12"
     style="stroke:#000000;fill:none" />
  <path
     d="m 127,21 h 10"
     id="path841"
     inkscape:connector-curvature="0"
     style="stroke:#000000" />
  <path
     inkscape:connector-curvature="0"
     id="path845"
     d="m 239,21 h 5 a 5,5 0 0 1 5,-5 5,5 0 0 1 5,5 5,5 0 0 1 -5,5 5,5 0 0 1 -5,-5"
     style="stroke:#000000;fill:#ffffff" />
  <path
     inkscape:connector-curvature="0"
     id="path847"
     d="M 25,21 H 35"
     style="stroke:#000000;fill:none" />
  <path
     inkscape:connector-curvature="0"
     id="path849"
     d="m 229,21 h 10"
     style="stroke:#000000;fill:none" />
  <text
     id="text823"
     y="24.310547"
     x="80.923828"
     style="line-height:100%;text-align:center;text-anchor:middle">Signature</text>
  <text
     id="text833"
     y="24.310547"
     x="182.69238"
     style="line-height:100%;text-align:center;text-anchor:middle">chunk</text>
  <text
     style="line-height:125%;text-align:center;text-anchor:middle"
     x="-59.076172"
     y="24.310547"
     id="text829"></text>
  <text
     xml:space="preserve"
     style="font-style:normal;font-weight:normal;font-size:12px;line-height:100%;font-family:sans-serif;text-align:start;letter-spacing:0px;word-spacing:0px;text-anchor:start;fill:#000000;fill-opacity:1;stroke:none;stroke-width:1px;stroke-linecap:butt;stroke-linejoin:miter;stroke-opacity:1"
     x="-11.389738"
     y="13.283026"
     id="text835"><tspan
       sodipodi:role="line"
       id="tspan833"
       x="-11.389738"
       y="13.283026"
       style="font-size:12px;line-height:100%;stroke-width:1px">1</tspan><tspan
       sodipodi:role="line"
       x="-11.389738"
       y="25.283026"
       id="tspan837"
       style="font-size:12px;line-height:100%;stroke-width:1px">2</tspan><tspan
       sodipodi:role="line"
       x="-11.389738"
       y="37.283024"
       style="font-size:12px;line-height:100%;stroke-width:1px"
       id="tspan839">3</tspan><tspan
       sodipodi:role="line"
       x="-11.389738"
       y="49.283024"
       style="font-size:12px;line-height:100%;stroke-width:1px"
       id="tspan841">4</tspan></text>
</svg>
